<?xml version="1.0" standalone="no"?>
<!DOCTYPE svg PUBLIC "-//W3C//DTD SVG 20010904//EN"
 "http://www.w3.org/TR/2001/REC-SVG-20010904/DTD/svg10.dtd">
<svg version="1.0" xmlns="http://www.w3.org/2000/svg"
 width="1024.000000pt" height="1024.000000pt" viewBox="0 0 1024.000000 1024.000000"
 preserveAspectRatio="xMidYMid meet">

<g transform="translate(0.000000,1024.000000) scale(0.100000,-0.100000)"
fill="#000000" stroke="none">
<path d="M9480 9212 c0 -7 4 -12 8 -12 5 0 14 -10 20 -22 7 -16 11 -18 11 -7
1 9 -8 24 -19 34 -11 10 -20 13 -20 7z"/>
<path d="M10052 8820 c0 -14 2 -19 5 -12 2 6 2 18 0 25 -3 6 -5 1 -5 -13z"/>
<path d="M10086 8797 c3 -10 9 -15 12 -12 3 3 0 11 -7 18 -10 9 -11 8 -5 -6z"/>
<path d="M9590 8471 c0 -6 4 -13 10 -16 6 -3 7 1 4 9 -7 18 -14 21 -14 7z"/>
<path d="M9610 8349 c7 -11 14 -19 16 -16 7 7 -7 37 -17 37 -6 0 -5 -9 1 -21z"/>
<path d="M2960 7736 c-115 -59 -186 -99 -200 -111 -8 -7 -42 -26 -75 -42 -33
-16 -96 -51 -141 -76 -45 -26 -84 -47 -88 -47 -4 0 -19 -8 -34 -19 -54 -37
-175 -105 -447 -252 -93 -50 -177 -97 -185 -104 -8 -7 -33 -20 -55 -29 -22
-10 -49 -25 -60 -36 -11 -10 -51 -34 -90 -54 -101 -50 -135 -82 -142 -131 -4
-31 -1 -44 14 -57 22 -20 144 -68 173 -68 23 0 21 10 25 -178 2 -75 -1 -135
-6 -138 -6 -3 -21 -24 -35 -46 -22 -34 -25 -48 -20 -82 4 -23 14 -51 22 -64
13 -20 13 -37 -5 -160 -11 -75 -25 -198 -32 -273 -12 -150 -8 -172 37 -189 42
-16 191 -12 226 6 l30 16 -6 97 c-4 54 -12 115 -17 137 -5 21 -14 80 -19 129
-6 50 -14 115 -20 145 -8 44 -7 68 7 120 19 76 14 107 -25 152 l-29 33 5 133
c2 72 7 132 11 132 14 0 428 -81 511 -100 47 -11 130 -27 185 -36 91 -15 226
-43 457 -94 48 -11 116 -20 151 -20 62 0 65 1 182 80 66 44 149 101 185 127
36 26 97 65 135 87 72 42 275 179 400 270 38 28 77 56 86 61 93 53 130 78 167
109 24 20 47 36 51 36 4 0 31 17 59 38 28 20 69 48 90 61 61 37 102 79 102
106 0 30 -61 65 -111 65 -18 0 -65 9 -103 19 -39 11 -108 25 -153 31 -46 6
-104 18 -130 26 -27 9 -109 26 -183 39 -74 14 -178 34 -230 45 -52 11 -129 27
-170 35 -95 18 -352 72 -405 85 -51 12 -43 13 -95 -14z m477 -748 c-3 -8 -6
-5 -6 6 -1 11 2 17 5 13 3 -3 4 -12 1 -19z"/>
<path d="M3870 6803 c-23 -8 -217 -132 -295 -188 -38 -28 -119 -82 -180 -120
-60 -37 -130 -82 -155 -99 -88 -62 -87 -61 -223 -42 -67 10 -183 33 -257 52
-187 46 -522 103 -548 93 -26 -10 -26 -10 25 -214 19 -77 37 -176 40 -220 6
-86 17 -107 62 -123 21 -7 41 -5 82 9 64 23 69 23 69 5 0 -8 -36 -48 -81 -88
-126 -114 -216 -272 -242 -425 -23 -134 -11 -215 54 -349 30 -63 52 -94 100
-137 70 -64 204 -144 299 -180 36 -13 94 -39 129 -57 35 -17 90 -40 121 -50
32 -10 79 -29 106 -43 27 -13 67 -30 89 -37 22 -7 67 -30 100 -51 33 -21 90
-57 128 -80 37 -23 67 -45 67 -50 0 -5 17 -28 39 -52 49 -54 57 -70 70 -144
10 -51 9 -74 -5 -134 -28 -123 -90 -197 -220 -262 -163 -82 -330 -95 -462 -35
-85 38 -211 162 -238 235 -9 26 -21 53 -25 58 -4 6 -12 36 -19 67 -6 32 -18
64 -26 72 -22 23 -97 29 -187 17 -119 -17 -121 -18 -150 -45 -25 -23 -27 -32
-27 -99 0 -67 24 -188 52 -262 26 -68 132 -195 203 -242 22 -15 58 -41 80 -59
73 -57 158 -89 370 -138 77 -18 302 -22 351 -7 16 5 63 17 104 26 41 10 100
28 130 42 241 106 380 260 476 528 26 72 29 92 28 200 -1 211 -61 364 -193
495 -118 117 -138 131 -297 209 -82 40 -187 92 -234 116 -47 24 -141 66 -210
93 -208 82 -283 127 -334 200 -24 36 -28 48 -23 84 14 95 37 148 98 219 72 83
113 112 210 147 60 21 91 26 169 26 135 0 175 -14 268 -94 72 -63 79 -72 102
-139 34 -103 47 -111 180 -111 143 0 165 8 180 68 8 37 8 63 -4 122 -41 210
-123 328 -283 409 -35 17 -63 35 -63 40 0 18 56 31 140 31 78 0 101 5 197 40
91 33 115 46 151 85 l44 46 -6 79 c-3 44 -10 97 -15 120 -6 22 -15 57 -21 79
-5 21 -10 49 -10 62 0 38 -39 183 -53 195 -7 6 -19 9 -27 7z m-60 -183 c0 -5
-2 -10 -4 -10 -3 0 -8 5 -11 10 -3 6 -1 10 4 10 6 0 11 -4 11 -10z m-185 -50
c3 -5 2 -10 -4 -10 -5 0 -13 5 -16 10 -3 6 -2 10 4 10 5 0 13 -4 16 -10z m132
-292 c-3 -8 -6 -5 -6 6 -1 11 2 17 5 13 3 -3 4 -12 1 -19z m-127 -518 c0 -5
-4 -10 -10 -10 -5 0 -10 5 -10 10 0 6 5 10 10 10 6 0 10 -4 10 -10z"/>
<path d="M5483 6056 c-39 -18 -53 -43 -53 -94 0 -35 3 -41 33 -52 66 -24 62
-1 59 -296 -1 -148 -5 -334 -8 -413 l-7 -144 -48 -104 c-27 -57 -49 -108 -49
-114 0 -5 -9 -27 -19 -47 -20 -39 -77 -159 -134 -282 -19 -41 -48 -104 -65
-140 -16 -36 -53 -119 -82 -185 -29 -66 -74 -165 -101 -220 -59 -126 -82 -204
-82 -280 0 -78 16 -132 53 -183 41 -56 95 -90 181 -113 67 -18 115 -19 656
-19 714 0 763 6 849 97 56 59 77 115 76 204 0 93 -13 141 -62 244 -44 91 -130
288 -156 355 -10 25 -25 56 -34 70 -18 27 -60 116 -60 126 0 8 -67 160 -109
249 -16 33 -37 80 -46 105 -19 49 -21 53 -71 145 -19 34 -39 86 -44 117 -11
57 -22 756 -13 796 3 12 12 22 20 22 8 0 28 7 45 16 29 15 30 18 26 66 -9 86
8 83 -381 85 -277 2 -348 0 -374 -11z m507 -498 c0 -186 5 -382 11 -435 10
-94 33 -162 118 -348 11 -22 38 -83 61 -135 24 -52 69 -150 101 -218 33 -67
59 -128 59 -135 0 -7 6 -21 13 -32 8 -11 21 -39 30 -63 9 -23 50 -116 92 -206
102 -223 121 -285 107 -335 -16 -50 -55 -88 -106 -102 -28 -8 -238 -12 -661
-13 -609 -1 -621 -1 -655 20 -19 11 -45 36 -58 55 -41 60 -21 145 90 379 31
63 74 160 98 215 46 110 47 112 77 170 12 22 34 72 49 110 16 39 38 87 51 107
13 21 30 57 39 80 33 88 40 104 67 150 15 26 27 52 27 58 0 6 9 27 19 48 51
101 58 177 60 724 l1 237 33 3 c17 2 87 3 155 4 l122 1 0 -339z"/>
<path d="M5530 3996 c0 -9 5 -16 10 -16 6 0 10 4 10 9 0 6 -4 13 -10 16 -5 3
-10 -1 -10 -9z"/>
<path d="M5181 3654 c0 -11 3 -14 6 -6 3 7 2 16 -1 19 -3 4 -6 -2 -5 -13z"/>
<path d="M5461 3644 c0 -11 3 -14 6 -6 3 7 2 16 -1 19 -3 4 -6 -2 -5 -13z"/>
<path d="M4425 6012 c-22 -9 -45 -20 -51 -24 -29 -19 -34 -108 -39 -688 -9
-901 -17 -1188 -41 -1552 -13 -189 -13 -232 -2 -254 20 -42 86 -62 206 -63
109 -1 151 11 172 49 6 11 12 107 15 217 2 109 7 254 10 323 2 69 7 213 10
320 3 107 8 256 11 330 3 74 7 293 9 485 2 193 7 451 10 575 6 261 5 268 -65
287 -68 17 -198 15 -245 -5z"/>
<path d="M7303 6021 c-73 -5 -86 -9 -110 -34 l-28 -27 -7 -303 c-5 -166 -10
-394 -12 -507 -3 -113 -10 -332 -15 -485 -6 -154 -13 -410 -16 -570 -3 -159
-10 -355 -16 -435 -18 -234 -13 -239 257 -232 151 3 144 -9 143 260 -1 230 4
439 21 852 5 140 10 341 10 445 0 164 8 233 23 215 16 -19 83 -133 113 -192
20 -40 58 -109 84 -153 26 -44 60 -108 74 -142 14 -34 39 -85 56 -113 17 -29
60 -111 96 -184 61 -121 111 -215 219 -406 24 -41 79 -145 123 -230 185 -358
163 -337 360 -352 167 -12 195 -7 211 35 5 13 9 188 9 388 0 200 5 571 11 824
17 705 21 1283 10 1313 -6 15 -16 30 -22 34 -7 4 -78 8 -159 8 l-147 0 -27
-35 -27 -36 -4 -372 c-3 -205 -5 -600 -7 -879 -1 -279 -5 -510 -9 -514 -13
-14 -33 18 -113 179 -25 51 -49 99 -54 107 -5 8 -21 38 -36 65 -14 28 -32 57
-39 65 -7 8 -36 67 -65 130 -28 63 -67 140 -86 172 -19 31 -57 106 -85 165
-49 108 -105 217 -153 303 -14 25 -32 61 -41 80 -9 19 -21 42 -26 50 -5 8 -16
30 -25 49 -47 102 -146 293 -177 343 -20 31 -49 65 -65 76 -25 19 -138 54
-158 50 -5 -1 -46 -4 -91 -7z"/>
<path d="M10050 782 c6 -13 14 -21 18 -18 3 4 -2 14 -12 24 -18 16 -18 16 -6
-6z"/>
</g>
</svg>
